<svg width="48" height="48" viewBox="0 0 48 48" fill="none" xmlns="http://www.w3.org/2000/svg">
<rect width="48" height="48" rx="5" fill="black"/>
<path d="M3.56445 11.9609H9.90625L15.0859 22.0547H15.2852L20.4648 11.9609H26.7734L18.0078 27.8652V36H12.3633V27.8652L3.56445 11.9609ZM33.5137 36.332C27.8691 36.332 24.416 32.8125 24.416 27.0684C24.416 21.4902 27.9023 17.7383 33.3145 17.7383C38.3613 17.7383 42.0137 20.959 42.0137 26.9355V28.3633H29.9277V28.4629C29.9277 30.7871 31.3555 32.2812 33.6133 32.2812C35.1406 32.2812 36.2695 31.6172 36.7344 30.5547H41.9473C41.2832 34.0742 38.1953 36.332 33.5137 36.332ZM29.9277 25.0762H36.8008C36.7676 23.1504 35.373 21.7891 33.4473 21.7891C31.4551 21.7891 30.0107 23.2002 29.9277 25.0762Z" fill="white"/>
</svg>
